<?xml version="1.0" encoding="UTF-8" standalone="no"?><!DOCTYPE svg PUBLIC "-//W3C//DTD SVG 1.1//EN" "http://www.w3.org/Graphics/SVG/1.1/DTD/svg11.dtd"><svg width="100%" height="100%" viewBox="0 0 1488 1283" version="1.1" xmlns="http://www.w3.org/2000/svg" xmlns:xlink="http://www.w3.org/1999/xlink" xml:space="preserve" xmlns:serif="http://www.serif.com/" style="fill-rule:evenodd;clip-rule:evenodd;stroke-linejoin:round;stroke-miterlimit:1.41421;"><rect id="Artboard1" x="0" y="0" width="1487.42" height="1282.58" style="fill:none;"/><clipPath id="_clip1"><rect x="0" y="0" width="1487.42" height="1282.58"/></clipPath><g clip-path="url(#_clip1)"><g><rect x="0" y="0" width="1487.42" height="1282.58" style="fill:#ebebeb;"/><path d="M170.091,231.731l0.276,470.598l529.125,0l0,-470.325l-263.994,264.483l-265.407,-264.756Zm-85.522,556.12l0,-703.314l59.275,0l291.654,291.003l290.353,-291.003l677.533,0l0,396.139l-534.284,0l0,-85.522l448.762,0l0,-225.095l-533.01,0l0.276,532.27l618.256,0l0,495.485l-534.284,0l0,-86.628l448.762,0l0,-323.335l-1233.29,0Z" style="fill:#1b1b1b;"/><path d="M784.852,1197.81l0,-329.68l-700.283,0l0,329.68l700.283,0Z" style="fill:#808080;"/></g></g></svg>